<?xml version="1.0" encoding="utf-8"?>
<!-- Svg Vector Icons : http://www.onlinewebfonts.com/icon -->
<!DOCTYPE svg PUBLIC "-//W3C//DTD SVG 1.1//EN" "http://www.w3.org/Graphics/SVG/1.1/DTD/svg11.dtd">
<svg version="1.1" xmlns="http://www.w3.org/2000/svg" xmlns:xlink="http://www.w3.org/1999/xlink" x="0px" y="0px" viewBox="0 0 1000 1000" enable-background="new 0 0 1000 1000" xml:space="preserve">
<metadata> Svg Vector Icons : http://www.onlinewebfonts.com/icon </metadata>
<g><g transform="translate(0.000000,511.000000) scale(0.100000,-0.100000)"><path d="M4876.8,4937.6c-98-33.3-166.6-98-211.7-196c-31.4-68.6-37.2-131.3-37.2-464.5c0-386.1,0-388.1-43.1-395.9c-25.5-5.9-137.2-19.6-250.9-31.4c-774.2-82.3-1636.5-390-2269.6-809.4l-184.2-121.5l1560.1-5.9c858.4-2,2261.7-2,3120.2,0l1560.1,5.9l-184.2,121.5c-631.1,417.5-1507.1,731-2269.6,811.4c-113.7,11.8-225.4,25.5-248.9,29.4c-45.1,7.8-45.1,9.8-45.1,395.9c0,331.2-5.9,397.9-37.2,464.5c-43.1,98-135.2,178.3-233.2,205.8C5008.1,4972.8,4968.9,4970.9,4876.8,4937.6z"/><path d="M512.1,3420.6c-164.6-86.2-239.1-305.7-160.7-474.3c27.5-58.8,196-248.9,521.3-582.1l480.2-497.8l5.9-1471.9c5.9-1469.9,5.9-1473.9,49-1579.7c188.1-456.7,660.5-774.2,1289.6-864.3c186.2-25.4,4419.6-25.4,4605.8,0c627.2,90.2,1103.4,407.7,1289.6,864.3c43.1,105.8,43.1,109.8,49,1579.7l5.9,1471.9l480.2,497.8c288.1,295.9,495.9,527.2,519.4,574.2c72.5,156.8,27.5,348.9-109.7,452.7c-94.1,70.6-262.6,88.2-370.4,37.2c-43.1-21.6-235.2-201.9-468.4-442.9l-394-409.6H5000.2H1697.8L1296,2989.4c-233.2,241.1-427.3,427.3-464.5,441C741.4,3469.6,592.4,3463.7,512.1,3420.6z"/><path d="M7567.7-2433.6c-572.3-78.4-1027-280.3-1117.1-497.8l-23.5-58.8H4559.3H2693.4l-23.5,80.4c-13.7,43.1-41.2,96-62.7,117.6c-35.3,35.3-74.5,37.2-1199.5,37.2c-995.6,0-1168.1-3.9-1203.4-29.4c-139.1-98-139.1-666.4,0-764.4c35.3-25.4,207.8-29.4,1203.4-29.4H2568l41.2,45.1c23.5,23.5,51,80.3,64.7,127.4l21.6,82.3h1865.8H6429l21.5-111.7c54.9-268.5,213.6-556.6,427.3-776.1c464.5-478.2,1174-652.7,1816.8-450.8c282.2,90.2,484.1,207.7,693.8,405.7c329.3,313.6,509.6,711.5,511.5,1121c0,139.2-5.9,166.6-56.8,247c-139.2,217.5-533.1,382.2-1095.6,454.7C8447.7-2394.4,7855.8-2394.4,7567.7-2433.6z"/></g></g>
</svg>