<?xml version="1.0" encoding="utf-8"?>
<!-- Generator: Adobe Illustrator 16.0.0, SVG Export Plug-In . SVG Version: 6.00 Build 0)  -->
<!DOCTYPE svg PUBLIC "-//W3C//DTD SVG 1.1//EN" "http://www.w3.org/Graphics/SVG/1.1/DTD/svg11.dtd">
<svg version="1.1" id="Layer_1" xmlns="http://www.w3.org/2000/svg" xmlns:xlink="http://www.w3.org/1999/xlink" x="0px" y="0px"
	 width="122px" height="131px" viewBox="0 0 122 131" enable-background="new 0 0 122 131" xml:space="preserve">
<g>
	<g>
		<path fill-rule="evenodd" clip-rule="evenodd" fill="#00C683" d="M29.5,0v63h63V0H29.5z M73.5,46l-12,12l-13-12l9-26l-9-12h25
			l-9,12L73.5,46z"/>
	</g>
</g>
<g>
	<g>
		<path fill="#1e1e1e" d="M50.501,118.2c0,2.067-0.55,3.642-1.65,4.725c-1.1,1.084-2.4,1.625-3.9,1.625
			c-3.034,0-4.55-2.066-4.55-6.2V103.7h-7.55V120c0,3.634,1,6.375,3,8.225c2,1.851,4.475,2.775,7.425,2.775
			c2.95,0,5.358-1.316,7.225-3.95v3.55h7.55V103.7h-7.55V118.2z M65.151,130.6h7.5V103.7h-7.5V130.6z M68.901,92.75
			c-1.233,0-2.275,0.425-3.125,1.275c-0.851,0.85-1.275,1.892-1.275,3.125s0.425,2.274,1.275,3.125
			c0.85,0.85,1.892,1.274,3.125,1.274c1.232,0,2.274-0.425,3.125-1.274c0.85-0.851,1.274-1.892,1.274-3.125
			s-0.425-2.275-1.274-3.125C71.176,93.175,70.134,92.75,68.901,92.75z M91.4,124.45c-0.733,0-1.367-0.292-1.899-0.875
			c-0.534-0.583-0.8-1.392-0.8-2.425V109.1h6.5V103.7h-6.5v-8.05H81.15v8.05h-3.149v5.399h3.149v12.4c0,2.934,0.892,5.25,2.676,6.95
			c1.782,1.7,3.966,2.55,6.55,2.55c2.583,0,5.041-1.066,7.375-3.2l-2.8-5.25C93.983,123.817,92.801,124.45,91.4,124.45z
			 M119.2,116.55c-1-0.6-1.858-1.041-2.575-1.325c-0.717-0.282-1.925-0.691-3.625-1.225s-2.917-1-3.649-1.4
			c-0.734-0.399-1.101-0.949-1.101-1.649c0-1.267,1.158-1.9,3.476-1.9c2.316,0,4.641,0.8,6.975,2.4l2.8-5
			c-3.167-2.133-6.333-3.2-9.5-3.2s-5.75,0.783-7.75,2.35c-2,1.567-3,3.593-3,6.075c0,2.483,1.017,4.358,3.05,5.625
			c1,0.634,1.892,1.117,2.676,1.45c0.782,0.334,1.916,0.733,3.399,1.2s2.616,0.967,3.4,1.5c0.782,0.533,1.175,1.117,1.175,1.75
			c0,0.634-0.283,1.142-0.85,1.524c-0.567,0.384-1.334,0.575-2.301,0.575c-3.167,0-6.149-1.083-8.949-3.25l-3.301,4.7
			c1.733,1.4,3.684,2.459,5.851,3.175c2.166,0.717,4.25,1.075,6.25,1.075c3,0,5.475-0.8,7.425-2.4c1.95-1.6,2.925-3.725,2.925-6.375
			C122,119.575,121.066,117.684,119.2,116.55z"/>
	</g>
</g>
<path fill="#00C683" d="M13.75,101.7c3.232,0,6.366,1.149,9.399,3.45l3.95-5.7c-1.733-1.467-3.767-2.601-6.1-3.4
	c-2.334-0.8-4.667-1.2-7-1.2c-3.567,0-6.542,0.9-8.925,2.7c-2.384,1.8-3.575,4.358-3.575,7.675c0,3.317,0.941,5.75,2.825,7.301
	c1.883,1.55,4.857,2.809,8.925,3.774c2.566,0.634,4.282,1.259,5.149,1.875c0.867,0.617,1.301,1.45,1.301,2.5s-0.409,1.884-1.226,2.5
	c-0.817,0.617-1.942,0.925-3.375,0.925c-3.2,0-6.684-1.649-10.45-4.949L0,124.85C4.433,128.95,9.416,131,14.95,131
	c3.832,0,6.925-0.975,9.274-2.925c2.351-1.95,3.525-4.491,3.525-7.625c0-3.133-0.917-5.517-2.75-7.15
	c-1.834-1.633-4.409-2.857-7.726-3.675c-3.316-0.816-5.434-1.525-6.35-2.125c-0.917-0.6-1.375-1.408-1.375-2.425
	s0.375-1.833,1.125-2.45C11.425,102.009,12.45,101.7,13.75,101.7L13.75,101.7z"/>
</svg>
