<?xml version="1.0" encoding="utf-8"?>
<!-- Generator: Adobe Illustrator 16.0.0, SVG Export Plug-In . SVG Version: 6.00 Build 0)  -->
<!DOCTYPE svg PUBLIC "-//W3C//DTD SVG 1.1//EN" "http://www.w3.org/Graphics/SVG/1.1/DTD/svg11.dtd">
<svg version="1.1" id="Layer_1" xmlns="http://www.w3.org/2000/svg" xmlns:xlink="http://www.w3.org/1999/xlink" x="0px" y="0px"
	 width="58px" height="48px" viewBox="0 0 58 48" enable-background="new 0 0 58 48" xml:space="preserve">
<g>
	<g>
		<path fill="#00c683" d="M57.951,25.104c-0.037-0.029-0.09-0.039-0.131-0.025c-0.051,0.016-0.098,0.029-0.141,0.041l-0.021,0.008
			c-0.109,0.031-0.201,0.059-0.293,0.094c-1.459,0.578-2.607,1.568-3.512,3.027c-0.223,0.361-0.396,0.736-0.533,1.109
			c0.225-1.258,0.277-1.746,0.318-3.152c0.002-0.061,0.002-0.119,0.002-0.18c0-0.162,0-0.316,0.035-0.455
			c0.043-0.168,0.129-0.332,0.211-0.494c0.023-0.045,0.047-0.09,0.066-0.13c0.008-0.008,0.029-0.021,0.037-0.022
			c0.418-0.063,0.787-0.24,1.129-0.54c0.344-0.304,0.627-0.675,0.842-1.104c0.77-1.54,1.154-3.241,1.145-5.057
			c0-0.175-0.021-0.346-0.043-0.531c-0.012-0.083-0.021-0.168-0.031-0.256c-0.004-0.048-0.033-0.091-0.078-0.112
			c-0.041-0.021-0.094-0.019-0.137,0.007c-0.025,0.016-0.047,0.029-0.068,0.041c-0.039,0.023-0.068,0.042-0.096,0.062
			c-0.658,0.47-1.236,1.054-1.723,1.737c-0.793,1.116-1.254,2.377-1.377,3.765c-0.014-0.154-0.025-0.309-0.037-0.463l-0.006-0.057
			c-0.049-0.606-0.098-1.234-0.139-1.851c-0.012-0.156-0.041-0.308-0.07-0.455c-0.057-0.283-0.109-0.55-0.023-0.83
			c0.02-0.063,0.035-0.127,0.051-0.19c0.041-0.157,0.234-0.4,0.531-0.665l0.012-0.01c0.109-0.093,0.674-0.607,0.994-1.625
			c0.324-1.034,0.299-2.114,0.281-2.903v-0.021c-0.023-1.084-0.141-1.901-0.381-2.65c-0.031-0.096-0.068-0.19-0.107-0.289
			c-0.02-0.052-0.041-0.105-0.061-0.161c-0.018-0.047-0.061-0.082-0.109-0.09l-0.023-0.002c-0.043,0-0.082,0.019-0.109,0.052
			l-0.232,0.283c-1.117,1.358-1.664,2.95-1.631,4.732c0.006,0.314,0.029,0.636,0.072,0.969c-0.283-0.977-0.617-1.927-0.994-2.842
			c-0.008-0.02-0.014-0.045-0.014-0.065l-0.004-0.125c-0.004-0.181-0.008-0.367,0-0.551c0.002-0.03,0.021-0.085,0.063-0.139
			c0.059-0.077,0.123-0.152,0.189-0.231c0.115-0.132,0.234-0.27,0.328-0.426c0.301-0.504,0.441-1.099,0.445-1.873
			c0.004-0.912-0.137-1.871-0.445-3.019c-0.168-0.626-0.42-1.44-0.893-2.178c-0.031-0.05-0.066-0.097-0.105-0.146
			C51.117,5.093,51.1,5.07,51.082,5.045c-0.027-0.036-0.064-0.057-0.123-0.057c-0.049,0.003-0.092,0.031-0.115,0.073
			c-0.592,1.065-0.887,2.204-0.9,3.48c-0.012,1.064,0.154,1.98,0.363,2.703c-0.531-0.969-1.121-1.904-1.762-2.792l-0.016-0.021
			c-0.014-0.019-0.02-0.029-0.02-0.022c-0.039-0.288-0.068-0.517-0.088-0.717c0.002-0.003,0.006-0.02,0.035-0.07
			c0.043-0.072,0.088-0.143,0.137-0.217c0.1-0.15,0.201-0.305,0.268-0.479c0.197-0.524,0.242-1.119,0.135-1.817
			c-0.234-1.546-0.916-2.938-2.088-4.255c-0.121-0.135-0.254-0.255-0.395-0.381l-0.039-0.035c-0.055-0.05-0.111-0.101-0.168-0.154
			c-0.037-0.034-0.09-0.047-0.139-0.032c-0.049,0.015-0.086,0.054-0.098,0.103l-0.025,0.112c-0.018,0.074-0.029,0.133-0.041,0.191
			c-0.156,0.939-0.145,1.944,0.035,3.073c0.182,1.12,0.539,2.086,1.09,2.925c-0.824-0.97-1.627-1.785-2.467-2.506
			c-0.004-0.005-0.01-0.02-0.01-0.023c0.066-0.563-0.074-1.094-0.426-1.623c-0.463-0.694-1.105-1.224-1.912-1.573
			c-0.48-0.208-0.98-0.393-1.469-0.574c-0.234-0.087-0.469-0.173-0.711-0.266c-0.242-0.096-0.346-0.113-0.402-0.062
			c-0.072,0.067-0.055,0.125-0.023,0.229l0.01,0.034c0.297,0.993,0.689,1.779,1.201,2.401c0.938,1.144,2.037,1.725,3.355,1.777
			c0.047,0.002,0.082,0.015,0.098,0.027c0.186,0.139,0.322,0.25,0.443,0.36c0.383,0.348,0.758,0.719,1.127,1.11
			c-0.549-0.339-1.217-0.492-1.971-0.454c-0.412,0.021-0.822,0.081-1.219,0.139L42.74,5.654c-0.117,0.017-0.234,0.035-0.35,0.051
			c-0.256,0.035-0.512,0.079-0.738,0.119c-0.092,0.017-0.311,0.066-0.361,0.172c-0.018,0.036-0.016,0.076,0.004,0.112
			c0.018,0.032,0.037,0.062,0.057,0.088c0.654,0.846,1.4,1.404,2.281,1.704c1.074,0.367,2.059,0.337,2.945-0.095
			c0.135-0.075,0.299-0.112,0.486-0.112c0.141,0,0.246,0.022,0.281,0.03c0.053,0.008,0.123,0.038,0.139,0.057
			c0.551,0.723,1.072,1.495,1.561,2.305c-0.412-0.4-0.949-0.67-1.684-0.846c-0.643-0.153-1.299-0.186-1.934-0.218l-0.213-0.01
			C45.016,9,44.816,8.988,44.611,8.975l-0.344-0.021c-0.045,0-0.086,0.021-0.113,0.057c-0.027,0.039-0.035,0.088-0.018,0.133
			c0.014,0.037,0.039,0.104,0.051,0.125c0.67,1.118,1.457,1.891,2.404,2.363c0.928,0.462,1.764,0.584,2.609,0.382
			c0.098-0.023,0.211-0.036,0.328-0.036c0.359,0,0.609,0.109,0.662,0.21c0.465,0.956,0.879,1.95,1.236,2.963
			c-0.375-0.516-0.898-0.935-1.563-1.249c-0.66-0.311-1.348-0.594-2.023-0.874c-0.291-0.12-0.582-0.24-0.873-0.363
			c-0.043-0.019-0.094-0.015-0.135,0.012c-0.039,0.026-0.063,0.07-0.063,0.117c0,0.09,0.965,2.759,2.363,3.811
			c0.572,0.428,1.275,0.87,2.162,0.891c0.266,0.005,0.541,0.042,0.748,0.277c0.031,0.038,0.072,0.067,0.119,0.083
			c0.07,0.023,0.09,0.066,0.125,0.213c0.287,1.203,0.496,2.443,0.625,3.702c-0.039-0.128-0.084-0.257-0.137-0.387
			c-0.313-0.792-0.84-1.486-1.658-2.183c-0.422-0.36-0.865-0.709-1.291-1.047l-0.021-0.016c-0.193-0.154-0.389-0.308-0.582-0.462
			c-0.041-0.032-0.08-0.065-0.125-0.104l-0.119-0.103c-0.043-0.036-0.105-0.043-0.156-0.019c-0.051,0.025-0.08,0.079-0.076,0.136
			c0.006,0.085,0.01,0.166,0.016,0.243l0.002,0.036c0.01,0.159,0.018,0.31,0.035,0.458c0.15,1.443,0.58,2.648,1.314,3.683
			c0.453,0.64,1.105,1.422,2.121,1.792c0.246,0.09,0.426,0.228,0.619,0.473c0.18,0.23,0.215,0.441,0.209,0.706
			c-0.016,1.109-0.096,2.209-0.236,3.287c-0.031-0.301-0.102-0.609-0.207-0.93c-0.221-0.664-0.563-1.311-1.049-1.975
			c-0.418-0.575-0.855-1.152-1.275-1.71l-0.029-0.037c-0.166-0.221-0.334-0.442-0.496-0.659c-0.031-0.045-0.074-0.061-0.1-0.069
			c-0.037-0.018-0.08-0.019-0.117-0.003c-0.039,0.016-0.066,0.047-0.08,0.086l-0.004,0.015c-0.008,0.02-0.014,0.038-0.016,0.056
			c-0.291,1.729-0.113,3.279,0.545,4.738c0.32,0.713,0.752,1.52,1.512,2.102c0.346,0.266,0.619,0.637,0.77,1.047
			c0.033,0.088,0.031,0.127,0.027,0.141c-0.32,1.328-0.74,2.609-1.252,3.822c0.133-0.639,0.123-1.311-0.027-2.006
			c-0.213-0.984-0.578-1.941-0.906-2.758l-0.098-0.246c-0.152-0.383-0.307-0.768-0.465-1.17c-0.021-0.051-0.07-0.086-0.135-0.088
			c-0.051,0-0.098,0.029-0.123,0.076l-0.051,0.096c-0.023,0.043-0.043,0.082-0.063,0.123c-0.656,1.479-0.879,2.992-0.658,4.504
			c0.156,1.08,0.424,1.854,0.863,2.508c0.227,0.338,0.443,0.715,0.482,1.178c0.01,0.109,0.004,0.186-0.045,0.271
			c-0.555,0.969-1.176,1.883-1.855,2.73c0.002-0.004,0.004-0.008,0.008-0.014c0.488-0.893,0.504-1.857,0.453-2.684
			c-0.043-0.709-0.123-1.416-0.203-2.102L48.23,35.27c-0.031-0.273-0.063-0.549-0.092-0.822c-0.016-0.156-0.035-0.311-0.055-0.469
			l-0.023-0.215c-0.006-0.047-0.035-0.088-0.076-0.107c-0.078-0.041-0.203,0.021-0.338,0.18c-0.93,1.098-1.506,2.336-1.715,3.682
			c-0.215,1.398-0.098,2.592,0.359,3.654c0.012,0.029,0.012,0.086,0.012,0.105l-0.025,0.611C46.273,41.934,46.25,41.982,46.23,42
			c-0.928,0.893-1.949,1.666-3.045,2.313c0.52-0.469,0.893-1.078,1.135-1.852c0.268-0.857,0.404-1.75,0.539-2.615l0.012-0.078
			c0.047-0.303,0.096-0.607,0.146-0.916l0.057-0.352c0.008-0.051-0.012-0.102-0.053-0.133c-0.039-0.031-0.096-0.039-0.141-0.02
			l-0.051,0.021c-0.053,0.021-0.098,0.041-0.143,0.063c-2.072,1.033-3.436,3.439-3.242,5.725c0.029,0.357-0.004,0.695-0.102,1.027
			c-0.01,0.029-0.039,0.063-0.051,0.068c-0.984,0.414-1.92,0.717-2.861,0.924c-0.049,0.012-0.086,0.045-0.102,0.092
			c-0.018,0.047-0.008,0.098,0.025,0.137c0.102,0.121,0.191,0.25,0.264,0.387c0.031,0.057,0.104,0.084,0.156,0.07
			c0.768-0.174,1.514-0.4,2.221-0.672c0.059-0.023,0.102-0.033,0.143-0.027c0.156,0.021,0.322,0.053,0.508,0.098
			c0.037,0.01,0.07,0.027,0.07,0.025c0.402,0.803,1.096,1.313,2.117,1.561c0.223,0.055,0.453,0.094,0.682,0.117
			C44.758,47.988,45.025,48,45.314,48c0.4,0,0.686-0.023,0.688-0.023c0.887-0.1,1.645-0.299,2.314-0.609
			c0.275-0.127,0.588-0.297,0.83-0.604c0.045-0.059,0.037-0.143-0.018-0.191c-0.682-0.6-1.375-1.035-2.121-1.332
			c-1.105-0.438-2.111-0.557-3.098-0.367c-0.146,0.027-0.291,0.064-0.432,0.105c0.924-0.551,1.807-1.197,2.641-1.934
			c0.018-0.014,0.043-0.027,0.064-0.031c0.135-0.021,0.316-0.051,0.502-0.063c0.018,0,0.039,0.008,0.041,0.008
			c0.504,0.563,1.152,0.834,1.98,0.834c0.043,0,0.086,0,0.127-0.002c0.902-0.029,1.811-0.275,2.697-0.734
			c0.645-0.336,1.316-0.727,1.861-1.309c0.121-0.129,0.229-0.275,0.324-0.406l0.008-0.012c0.043-0.057,0.086-0.115,0.129-0.172
			c0.023-0.029,0.035-0.07,0.027-0.109c-0.006-0.037-0.027-0.072-0.066-0.098c-0.01-0.004-0.24-0.127-0.451-0.209
			c-1.41-0.543-2.834-0.6-4.193-0.162c-0.443,0.143-0.863,0.355-1.27,0.652c0.754-0.875,1.451-1.832,2.084-2.863
			c0.008-0.012,0.025-0.041,0.031-0.045c0.055-0.035,0.111-0.068,0.168-0.102c0.102-0.061,0.207-0.121,0.305-0.193
			c0.084-0.063,0.107-0.064,0.191-0.01c0.119,0.076,0.258,0.117,0.377,0.148c0.705,0.18,1.416,0.09,2.203-0.279
			c0.719-0.336,1.27-0.865,1.76-1.389c0.713-0.764,1.178-1.453,1.467-2.17c0.061-0.15,0.104-0.305,0.146-0.467
			c0.02-0.068,0.039-0.137,0.059-0.203c0.021-0.072-0.018-0.148-0.088-0.174l-0.059-0.004c-0.291,0-2.883,0.043-4.4,1.51
			c-0.33,0.318-0.625,0.658-0.895,1.029c0.6-1.266,1.107-2.602,1.518-3.988l0.006-0.02c0.006-0.018,0.014-0.043,0.018-0.051
			l0.396-0.543c0.016-0.021,0.018-0.021,0.041-0.021c0.01,0,0.021,0.002,0.033,0.002l0.086,0.006
			c0.295,0.018,0.469,0.016,0.611-0.008c0.564-0.09,1.074-0.373,1.559-0.867c1.131-1.158,1.908-2.602,2.379-4.414
			c0.051-0.193,0.064-0.389,0.08-0.598c0.008-0.094,0.014-0.191,0.025-0.291C58.006,25.18,57.988,25.135,57.951,25.104z
			 M16.708,45.252c-0.013-0.006-0.041-0.039-0.051-0.068c-0.098-0.334-0.131-0.67-0.101-1.027c0.192-2.285-1.172-4.693-3.243-5.725
			c-0.044-0.023-0.09-0.043-0.143-0.064l-0.05-0.02c-0.046-0.02-0.104-0.012-0.141,0.018c-0.041,0.031-0.062,0.084-0.053,0.135
			l0.057,0.35c0.05,0.311,0.1,0.613,0.146,0.918l0.012,0.078c0.134,0.863,0.271,1.756,0.539,2.613
			c0.241,0.773,0.615,1.385,1.134,1.852c-1.097-0.645-2.118-1.42-3.046-2.311c-0.02-0.02-0.042-0.068-0.046-0.109L11.7,41.279
			c0-0.021-0.001-0.08,0.012-0.107c0.457-1.063,0.574-2.258,0.358-3.654c-0.208-1.348-0.785-2.586-1.714-3.682
			c-0.109-0.129-0.205-0.193-0.285-0.193c-0.02,0-0.038,0.004-0.052,0.012c-0.043,0.021-0.071,0.063-0.077,0.109l-0.025,0.213
			c-0.019,0.158-0.037,0.314-0.054,0.469c-0.028,0.275-0.061,0.549-0.092,0.822l-0.005,0.041c-0.078,0.684-0.159,1.391-0.203,2.1
			c-0.05,0.826-0.034,1.793,0.455,2.686c0.003,0.004,0.005,0.01,0.008,0.014c-0.681-0.85-1.303-1.764-1.857-2.73
			c-0.049-0.088-0.053-0.162-0.044-0.271c0.04-0.465,0.256-0.842,0.483-1.18c0.439-0.654,0.705-1.428,0.862-2.508
			c0.22-1.51-0.002-3.025-0.659-4.504c-0.018-0.039-0.039-0.08-0.062-0.121l-0.051-0.098c-0.024-0.047-0.077-0.078-0.133-0.074
			c-0.055,0.002-0.104,0.037-0.124,0.088c-0.159,0.4-0.313,0.787-0.467,1.17l-0.098,0.246c-0.326,0.816-0.692,1.771-0.905,2.758
			c-0.15,0.695-0.159,1.365-0.028,2.006c-0.51-1.213-0.93-2.494-1.251-3.822c-0.004-0.014-0.005-0.053,0.027-0.141
			c0.149-0.41,0.424-0.783,0.771-1.049c0.76-0.58,1.19-1.389,1.512-2.102c0.657-1.459,0.836-3.007,0.545-4.737
			c-0.003-0.018-0.009-0.036-0.016-0.056l-0.005-0.016c-0.013-0.039-0.042-0.07-0.079-0.086c-0.038-0.015-0.084-0.013-0.113,0.001
			c-0.029,0.011-0.073,0.027-0.102,0.069c-0.165,0.219-0.332,0.44-0.499,0.662L7.706,23.65c-0.422,0.559-0.857,1.136-1.276,1.711
			c-0.485,0.664-0.828,1.309-1.049,1.973c-0.105,0.322-0.175,0.631-0.208,0.93c-0.14-1.076-0.219-2.178-0.236-3.287
			c-0.004-0.265,0.03-0.475,0.211-0.705c0.192-0.246,0.371-0.383,0.619-0.474c1.015-0.37,1.666-1.152,2.12-1.792
			c0.734-1.036,1.164-2.24,1.315-3.683c0.017-0.148,0.025-0.299,0.035-0.458l0.002-0.036c0.005-0.077,0.01-0.158,0.016-0.243
			c0.004-0.057-0.026-0.109-0.077-0.135c-0.05-0.025-0.112-0.018-0.155,0.019l-0.12,0.103c-0.046,0.039-0.084,0.072-0.125,0.104
			c-0.193,0.155-0.388,0.309-0.582,0.462l-0.021,0.016c-0.428,0.338-0.869,0.687-1.291,1.047c-0.819,0.697-1.347,1.39-1.66,2.183
			c-0.051,0.13-0.097,0.26-0.136,0.388c0.129-1.259,0.338-2.5,0.625-3.703c0.035-0.147,0.055-0.19,0.126-0.214
			c0.046-0.015,0.088-0.044,0.118-0.081c0.208-0.236,0.482-0.273,0.748-0.279c0.887-0.021,1.591-0.462,2.161-0.891
			c1.4-1.052,2.364-3.72,2.364-3.81c0-0.047-0.023-0.092-0.063-0.118c-0.039-0.026-0.093-0.029-0.133-0.012
			c-0.292,0.123-0.583,0.244-0.886,0.368c-0.664,0.275-1.351,0.559-2.011,0.869c-0.664,0.313-1.188,0.732-1.563,1.249
			c0.357-1.013,0.771-2.007,1.236-2.961c0.053-0.103,0.304-0.212,0.663-0.212c0.117,0,0.23,0.012,0.328,0.036
			c0.844,0.202,1.682,0.08,2.608-0.382c0.948-0.473,1.734-1.246,2.404-2.364c0.013-0.021,0.038-0.087,0.052-0.125
			c0.017-0.045,0.01-0.095-0.019-0.133c-0.026-0.036-0.068-0.058-0.121-0.058c-0.001,0-0.001,0-0.001,0L13.39,8.974
			C13.185,8.987,12.986,9,12.787,9.009L12.574,9.02c-0.635,0.032-1.292,0.064-1.935,0.217c-0.732,0.176-1.271,0.446-1.684,0.846
			c0.488-0.811,1.012-1.582,1.563-2.305c0.015-0.02,0.086-0.049,0.145-0.059c0.028-0.007,0.135-0.029,0.275-0.029
			c0.187,0,0.35,0.038,0.488,0.114c0.881,0.429,1.869,0.461,2.942,0.094c0.881-0.3,1.626-0.857,2.28-1.703
			c0.021-0.027,0.04-0.057,0.058-0.088c0.02-0.037,0.021-0.076,0.004-0.112c-0.051-0.106-0.27-0.155-0.362-0.172
			c-0.226-0.039-0.482-0.084-0.736-0.119c-0.116-0.016-0.233-0.033-0.35-0.05l-0.016-0.002c-0.396-0.058-0.805-0.119-1.218-0.139
			c-0.753-0.039-1.423,0.115-1.97,0.455c0.367-0.391,0.744-0.762,1.126-1.11c0.121-0.11,0.258-0.221,0.443-0.36
			c0.015-0.011,0.052-0.024,0.097-0.026c1.319-0.052,2.418-0.633,3.357-1.776c0.512-0.623,0.903-1.408,1.199-2.401l0.01-0.034
			c0.032-0.104,0.05-0.162-0.023-0.229c-0.056-0.052-0.154-0.037-0.41,0.064c-0.233,0.089-0.467,0.176-0.707,0.265
			c-0.483,0.178-0.982,0.363-1.465,0.571c-0.805,0.349-1.448,0.878-1.911,1.573c-0.353,0.528-0.491,1.059-0.426,1.62
			c-0.001,0.006-0.006,0.021-0.007,0.023c-0.841,0.724-1.645,1.539-2.47,2.509c0.55-0.839,0.909-1.806,1.089-2.926
			c0.182-1.129,0.193-2.134,0.035-3.073c-0.01-0.058-0.023-0.117-0.041-0.19L11.93,0.354c-0.012-0.049-0.049-0.088-0.097-0.103
			c-0.048-0.014-0.102-0.001-0.138,0.032c-0.058,0.054-0.114,0.105-0.169,0.155l-0.039,0.035c-0.141,0.126-0.274,0.246-0.395,0.381
			c-1.171,1.318-1.854,2.71-2.088,4.255C8.899,5.808,8.943,6.402,9.14,6.927C9.206,7.101,9.308,7.256,9.41,7.41
			c0.046,0.07,0.093,0.141,0.136,0.213c0.031,0.052,0.033,0.066,0.033,0.063C9.559,7.893,9.532,8.123,9.495,8.4
			C9.493,8.403,9.488,8.411,9.471,8.433L9.458,8.452c-0.641,0.888-1.231,1.824-1.764,2.792c0.21-0.723,0.376-1.639,0.364-2.704
			C8.043,7.265,7.75,6.126,7.157,5.06C7.133,5.019,7.091,4.991,7.032,4.987c-0.043,0-0.085,0.021-0.112,0.058
			C6.902,5.07,6.884,5.093,6.867,5.115C6.829,5.164,6.792,5.211,6.76,5.261C6.289,5.999,6.036,6.812,5.868,7.438
			C5.561,8.587,5.42,9.546,5.424,10.457c0.002,0.775,0.144,1.37,0.445,1.874c0.094,0.157,0.212,0.294,0.33,0.432
			c0.063,0.073,0.128,0.148,0.187,0.226c0.041,0.054,0.061,0.108,0.062,0.138c0.008,0.184,0.004,0.371,0,0.551l-0.003,0.124
			c0,0.021-0.005,0.046-0.013,0.065c-0.378,0.915-0.711,1.865-0.995,2.842c0.042-0.333,0.065-0.655,0.071-0.969
			c0.034-1.783-0.514-3.375-1.63-4.733l-0.232-0.282c-0.027-0.033-0.066-0.052-0.109-0.052l-0.023,0.002
			c-0.05,0.008-0.091,0.042-0.108,0.089c-0.021,0.056-0.042,0.109-0.063,0.161c-0.039,0.1-0.076,0.194-0.106,0.29
			c-0.239,0.748-0.357,1.565-0.381,2.649l-0.001,0.021c-0.018,0.789-0.042,1.869,0.283,2.903c0.319,1.018,0.883,1.532,0.992,1.625
			l0.012,0.01c0.298,0.265,0.491,0.507,0.531,0.665c0.017,0.063,0.033,0.127,0.052,0.19c0.085,0.28,0.032,0.547-0.025,0.835
			c-0.028,0.146-0.058,0.295-0.068,0.45c-0.041,0.617-0.091,1.244-0.14,1.851L4.486,22.47c-0.012,0.155-0.024,0.31-0.037,0.464
			c-0.124-1.388-0.585-2.649-1.378-3.766c-0.485-0.683-1.064-1.267-1.721-1.737c-0.028-0.02-0.059-0.038-0.099-0.062
			c-0.019-0.012-0.042-0.025-0.068-0.042c-0.041-0.024-0.094-0.026-0.136-0.006c-0.044,0.021-0.073,0.063-0.078,0.112
			c-0.01,0.087-0.02,0.173-0.03,0.261c-0.022,0.181-0.043,0.351-0.044,0.526c-0.01,1.816,0.376,3.518,1.146,5.057
			c0.214,0.43,0.497,0.801,0.842,1.105c0.342,0.299,0.711,0.476,1.127,0.54c0.01,0.001,0.031,0.014,0.034,0.018
			c0.023,0.045,0.046,0.09,0.07,0.135c0.083,0.16,0.169,0.326,0.211,0.492c0.036,0.141,0.036,0.295,0.036,0.457
			c0,0.061,0,0.119,0.002,0.178c0.04,1.406,0.093,1.896,0.317,3.154c-0.137-0.375-0.31-0.748-0.533-1.109
			c-0.903-1.459-2.052-2.449-3.51-3.027c-0.093-0.037-0.186-0.064-0.294-0.096l-0.021-0.006c-0.044-0.012-0.09-0.025-0.14-0.041
			c-0.045-0.016-0.096-0.004-0.132,0.025C0.013,25.133-0.005,25.18,0,25.227c0.011,0.102,0.018,0.197,0.024,0.293
			c0.016,0.207,0.029,0.402,0.08,0.598c0.471,1.813,1.249,3.256,2.38,4.412c0.484,0.496,0.994,0.779,1.559,0.867
			c0.143,0.023,0.316,0.025,0.611,0.008l0.085-0.006c0.013,0,0.024-0.002,0.035-0.002c0.022,0,0.024,0,0.041,0.025l0.395,0.541
			c0.006,0.006,0.013,0.031,0.018,0.049l0.006,0.02c0.41,1.387,0.919,2.723,1.519,3.99c-0.27-0.373-0.565-0.711-0.896-1.031
			c-1.517-1.467-4.108-1.51-4.399-1.51H1.42l-0.022,0.006c-0.071,0.023-0.11,0.1-0.088,0.172c0.02,0.066,0.039,0.135,0.061,0.215
			c0.041,0.15,0.084,0.307,0.145,0.457c0.287,0.715,0.753,1.404,1.466,2.168c0.49,0.523,1.042,1.055,1.76,1.391
			c0.787,0.367,1.497,0.457,2.203,0.277c0.12-0.031,0.258-0.072,0.377-0.148c0.085-0.055,0.107-0.053,0.19,0.01
			c0.099,0.072,0.204,0.135,0.306,0.193c0.056,0.033,0.113,0.066,0.166,0.1c0.008,0.008,0.026,0.037,0.033,0.047
			c0.633,1.031,1.331,1.988,2.085,2.863c-0.407-0.295-0.826-0.51-1.271-0.652c-1.359-0.438-2.783-0.381-4.193,0.162
			c-0.211,0.082-0.441,0.205-0.457,0.213c-0.032,0.021-0.054,0.057-0.062,0.096c-0.006,0.039,0.004,0.078,0.028,0.107
			c0.044,0.059,0.086,0.115,0.128,0.172l0.01,0.014c0.095,0.129,0.203,0.275,0.324,0.404c0.545,0.582,1.217,0.973,1.861,1.309
			c0.887,0.459,1.794,0.707,2.695,0.734c0.043,0.002,0.085,0.002,0.128,0.002c0.829,0,1.477-0.271,1.977-0.83
			c0.006-0.004,0.027-0.012,0.039-0.012c0.191,0.014,0.372,0.041,0.508,0.063c0.021,0.004,0.048,0.018,0.064,0.031
			c0.834,0.738,1.717,1.385,2.64,1.934c-0.14-0.041-0.283-0.076-0.431-0.105c-0.986-0.189-1.993-0.07-3.098,0.367
			c-0.746,0.297-1.439,0.732-2.12,1.332c-0.056,0.049-0.063,0.133-0.018,0.191c0.241,0.307,0.555,0.477,0.829,0.604
			c0.671,0.313,1.428,0.51,2.314,0.609c0.003,0,0.288,0.025,0.688,0.025c0.289,0,0.558-0.014,0.798-0.039
			c0.23-0.023,0.46-0.063,0.683-0.117c1.021-0.248,1.715-0.758,2.111-1.551c0.008-0.006,0.038-0.023,0.077-0.033
			c0.184-0.047,0.35-0.078,0.508-0.1c0.037-0.006,0.084,0.004,0.142,0.027c0.706,0.271,1.454,0.498,2.22,0.672
			c0.011,0.002,0.021,0.004,0.033,0.004c0.052,0,0.099-0.027,0.124-0.074c0.073-0.135,0.162-0.266,0.265-0.387
			c0.032-0.039,0.041-0.09,0.025-0.137c-0.015-0.045-0.053-0.08-0.103-0.09C18.628,45.967,17.693,45.666,16.708,45.252z
			 M35.896,27.461l5.842-5.68c0.197-0.192,0.27-0.481,0.184-0.743c-0.086-0.263-0.313-0.454-0.586-0.494l-8.072-1.169l-3.611-7.296
			c-0.123-0.247-0.375-0.404-0.652-0.404c-0.276,0-0.529,0.157-0.651,0.404l-3.609,7.296l-8.073,1.169
			c-0.273,0.04-0.502,0.231-0.587,0.494c-0.086,0.262-0.015,0.551,0.184,0.743l5.842,5.68l-1.378,8.018
			c-0.047,0.273,0.065,0.547,0.289,0.709s0.52,0.184,0.766,0.057l7.22-3.785l7.219,3.785c0.107,0.055,0.223,0.082,0.338,0.082
			c0.15,0,0.301-0.047,0.428-0.139c0.225-0.16,0.336-0.436,0.289-0.709L35.896,27.461z"/>
	</g>
</g>
</svg>
